<?xml version="1.0" standalone="no"?>
<!DOCTYPE svg PUBLIC "-//W3C//DTD SVG 20010904//EN"
 "http://www.w3.org/TR/2001/REC-SVG-20010904/DTD/svg10.dtd">
<svg version="1.0" xmlns="http://www.w3.org/2000/svg"
 width="16.000000pt" height="16.000000pt" viewBox="0 0 16.000000 16.000000"
 preserveAspectRatio="xMidYMid meet">
<metadata>
Created by potrace 1.11, written by Peter Selinger 2001-2013
</metadata>
<g transform="translate(0.000000,16.000000) scale(0.002183,-0.002183)"
fill="#000000" stroke="none">
<path d="M3958 7325 c-2 -1 -40 -6 -85 -9 -46 -4 -91 -9 -102 -11 -10 -2 -36
-6 -56 -9 -63 -10 -195 -45 -275 -73 -109 -37 -278 -109 -290 -122 -3 -3 -27
-17 -55 -31 -143 -70 -302 -188 -447 -329 -60 -58 -108 -111 -108 -118 0 -7
-4 -13 -8 -13 -14 0 -122 -156 -179 -258 -104 -189 -195 -474 -218 -687 -3
-22 -9 -71 -14 -110 -5 -38 -7 -142 -6 -230 2 -150 6 -198 22 -285 3 -19 6
-38 5 -42 -3 -16 62 -228 94 -307 133 -323 412 -656 718 -857 39 -26 83 -55
98 -66 49 -33 260 -135 358 -171 85 -33 261 -86 332 -101 16 -4 25 -11 23 -19
-2 -6 -7 -23 -9 -37 -9 -47 -48 -173 -68 -219 -11 -25 -26 -64 -34 -86 -16
-50 -117 -238 -150 -282 -13 -17 -24 -36 -24 -41 0 -6 -3 -12 -7 -14 -5 -1
-28 -30 -53 -63 -145 -196 -381 -405 -611 -545 -46 -28 -91 -55 -99 -60 -82
-52 -330 -169 -500 -235 -112 -44 -305 -110 -345 -119 -5 -1 -27 -10 -49 -19
-21 -9 -41 -17 -44 -17 -2 0 -37 -16 -76 -36 -190 -96 -344 -237 -418 -384
-13 -25 -26 -47 -29 -50 -12 -9 -57 -155 -70 -220 -6 -36 -13 -101 -14 -145
-3 -71 0 -103 20 -221 15 -92 115 -290 184 -366 51 -56 119 -117 169 -151 54
-36 148 -86 175 -91 7 -2 24 -8 40 -14 37 -16 144 -40 215 -49 84 -12 345 -7
432 6 41 7 86 14 100 16 35 6 58 11 105 24 22 6 43 11 47 11 4 0 26 7 48 15
22 8 44 15 48 16 39 9 164 53 267 96 122 49 377 174 470 228 33 20 68 38 78
42 9 3 17 9 17 13 0 4 12 12 26 18 48 22 363 236 384 261 3 3 23 20 45 36 47
35 209 171 280 235 63 57 358 350 352 350 -2 0 16 21 42 48 25 26 71 76 101
112 30 36 61 71 68 78 7 8 25 30 40 50 15 21 35 46 45 57 10 11 51 63 90 115
40 52 75 96 80 98 4 2 7 10 7 17 0 7 4 15 8 17 4 2 23 26 42 53 19 28 37 52
40 55 3 3 10 14 17 25 7 11 36 57 65 103 103 162 176 289 259 452 74 147 159
327 159 339 0 4 9 26 20 49 11 22 20 45 20 50 0 5 7 22 15 38 16 32 84 219 90
247 2 9 7 22 10 27 3 5 8 18 10 27 2 10 10 37 19 61 8 23 15 44 16 47 0 3 0 6
1 8 0 1 2 9 4 17 2 8 17 62 34 120 16 58 32 116 35 130 3 14 18 86 35 160 17
74 33 151 36 170 3 19 12 71 20 115 28 161 33 201 52 425 17 212 7 600 -21
795 -4 24 -30 157 -41 200 -1 6 -5 24 -9 40 -14 60 -29 112 -58 195 -16 47
-30 92 -33 100 -7 31 -65 158 -111 245 -119 227 -273 422 -453 575 -29 25 -63
53 -75 64 -11 10 -70 51 -131 91 -267 175 -586 287 -920 321 -56 5 -332 13
-337 9z"/>
</g>
</svg>
